<?xml version="1.0" encoding="utf-8"?>
<!-- Generator: Adobe Illustrator 26.0.1, SVG Export Plug-In . SVG Version: 6.00 Build 0)  -->
<svg version="1.1" id="Layer_1" xmlns="http://www.w3.org/2000/svg" xmlns:xlink="http://www.w3.org/1999/xlink" x="0px" y="0px"
	 viewBox="0 0 277 42.5" style="enable-background:new 0 0 277 42.5;" xml:space="preserve">
<style type="text/css">
	.st0{fill:#FFFFFF;}
</style>
<g>
	<polygon class="st0" points="53.3,33.1 46.7,12.1 37,12.1 47.6,42.1 59,42.1 69.6,12.1 59.8,12.1 	"/>
	<rect x="72.1" y="12.1" class="st0" width="9.2" height="30"/>
	<polygon class="st0" points="100.1,33.1 93.5,12.1 83.7,12.1 94.4,42.1 105.8,42.1 116.4,12.1 106.6,12.1 	"/>
	<path class="st0" d="M140.2,13.6c-2.3-1.2-4.9-1.8-7.8-1.8c-2.9,0-5.6,0.6-7.8,1.9c-2.3,1.2-4.1,3-5.3,5.3c-1.3,2.3-1.9,5-1.9,8.2
		c0,3.1,0.6,5.8,1.9,8.2c1.3,2.3,3.1,4.1,5.3,5.3c2.3,1.2,4.9,1.9,7.8,1.9c2.5,0,4.8-0.5,6.8-1.4c2-0.9,3.7-2.3,5-3.9
		c1.3-1.7,2.2-3.6,2.6-5.7h-9.7c-0.3,1.1-0.9,2-1.8,2.6c-0.9,0.7-2,1-3.4,1c-1.6,0-2.9-0.5-4-1.5c-1-1-1.6-2.6-1.7-4.9h20.8
		c0.2-0.9,0.3-1.7,0.3-2.5c0-2.9-0.6-5.4-1.9-7.6C144.2,16.5,142.5,14.8,140.2,13.6z M126.3,24.9c0.1-1.9,0.8-3.4,1.9-4.4
		c1.1-1,2.5-1.5,4.2-1.5c1.6,0,3,0.5,4.1,1.5c1.1,1,1.6,2.5,1.6,4.4H126.3z"/>
	<path class="st0" d="M159.9,17.8v-5.6h-9.2v30h9.2V28.5c0-2.5,0.7-4.2,2-5.3c1.3-1,3.2-1.6,5.7-1.6h2.6v-9.8
		c-2.1,0-4.1,0.5-5.9,1.6C162.6,14.5,161.1,16,159.9,17.8z"/>
	<path class="st0" d="M193.3,28c0,2.2-0.5,3.9-1.6,5c-1.1,1.2-2.5,1.8-4.4,1.8c-1.8,0-3.2-0.6-4.3-1.7c-1.1-1.1-1.6-2.7-1.6-4.8
		V12.1h-9.1v17.4c0,4,1,7.2,3,9.5c2,2.3,4.8,3.4,8.2,3.4c2.3,0,4.2-0.5,5.9-1.6c1.7-1,3-2.4,3.8-4.2v5.4h9.2v-30h-9.2V28z"/>
	<path class="st0" d="M226.9,25.9c-1.5-0.6-3.3-1.1-5.6-1.6c-2.1-0.5-3.7-0.9-4.6-1.4c-1-0.5-1.5-1.2-1.5-2.1c0-0.8,0.3-1.5,0.8-1.9
		c0.5-0.4,1.3-0.7,2.4-0.7c1.3,0,2.4,0.3,3.3,1c0.9,0.7,1.4,1.7,1.7,2.9h8.6c-0.6-3.1-2-5.6-4.3-7.5c-2.3-1.9-5.3-2.8-9.1-2.8
		c-3.7,0-6.6,0.8-8.6,2.5c-2,1.7-3.1,3.8-3.1,6.5c0,2.1,0.5,3.7,1.6,4.9c1,1.2,2.3,2.1,3.7,2.6c1.4,0.5,3.3,1,5.5,1.5
		c2.2,0.5,3.8,1,4.8,1.4c1,0.4,1.5,1.2,1.5,2.2c0,0.8-0.3,1.4-0.8,1.9c-0.5,0.5-1.3,0.7-2.4,0.7c-1.5,0-2.7-0.3-3.7-1
		c-0.9-0.7-1.5-1.7-1.6-3h-8.9c0.5,3.3,2,5.9,4.5,7.7c2.4,1.8,5.7,2.7,9.7,2.7c2.4,0,4.5-0.4,6.2-1.1c1.8-0.8,3.1-1.8,4-3.1
		c0.9-1.3,1.4-2.8,1.4-4.6c0-2.1-0.5-3.8-1.6-5C229.6,27.4,228.3,26.5,226.9,25.9z"/>
	<polygon class="st0" points="265,12.1 254.2,12.1 245.2,24.2 245.2,2.4 236,2.4 236,42.1 245.2,42.1 245.2,29.4 254.2,42.1 
		265.3,42.1 252.9,27.1 	"/>
	<rect x="267.2" y="12.1" class="st0" width="9.2" height="30"/>
	<ellipse transform="matrix(0.9732 -0.2298 0.2298 0.9732 0.8684 17.7534)" class="st0" cx="76.7" cy="5.1" rx="5.1" ry="5.1"/>
	<circle class="st0" cx="271.8" cy="5.1" r="5.1"/>
	<path class="st0" d="M31.2,40.4c-5.4,0-10.1-3.6-13.2-9.3c3.5,1.3,10,2.3,13.6-6.9c-9.2-3.8-13.4,0.9-15,3.8
		c-0.8-2.1-1.4-4.3-1.8-6.7c0,0,11.7,1.8,12.6-8.2c-10-4-12.8,6.4-12.8,6.4c-0.1-1.4-0.3-4.4-0.3-4.5c0,0,8.9-6.2,3.2-13.9
		C7,4.8,12.3,14.9,12.3,14.9c0,0.1,0,2,0,2.8c0,0-3.8-7.5-11.5-4.8c0.4,11.3,11.9,8.9,11.9,8.9c0.4,2.3,0.9,4.5,1.7,6.5
		c0,0-7-7.7-14.5-1.7c4.6,11.5,15.7,4.5,15.7,4.5c3.4,6.9,9,11.3,15.5,11.3C32.6,42.5,32.6,40.4,31.2,40.4z"/>
</g>
</svg>
